nColumns=19
nRows=105
DataType=double
version=3
OpenSimVersion=4.1
endheader
time	ground_force_1_vx	ground_force_1_vy	ground_force_1_vz	ground_force_1_px	ground_force_1_py	ground_force_1_pz	ground_force_1_mx	ground_force_1_my	ground_force_1_mz	ground_force_2_vx	ground_force_2_vy	ground_force_2_vz	ground_force_2_px	ground_force_2_py	ground_force_2_pz	ground_force_2_mx	ground_force_2_my	ground_force_2_mz
0	1.54825	64.5025	4.11172	0.0831385	0.006	-0.1553	0	0.269197	0	0	0	0	0.72778	0	-0.2482	0	0	0
0.01	-0.479971	92.5306	4.33383	0.0906925	0.006	-0.154664	0	0.310633	0	0	0	0	0.72778	0	-0.2482	0	0	0
0.02	-3.6372	125.607	4.34506	0.0972325	0.006	-0.154099	0	0.359645	0	0	0	0	0.72778	0	-0.2482	0	0	0
0.03	-8.0743	163.574	4.04978	0.10236	0.006	-0.15363	0	0.411945	0	0	0	0	0.72778	0	-0.2482	0	0	0
0.04	-13.7692	206.08	3.33328	0.106668	0.006	-0.153194	0	0.465118	0	0	0	0	0.72778	0	-0.2482	0	0	0
0.05	-20.5346	252.573	2.07092	0.110466	0.006	-0.152753	0	0.518067	0	0	0	0	0.72778	0	-0.2482	0	0	0
0.06	-28.0916	302.283	0.151188	0.113921	0.006	-0.152284	0	0.570709	0	0	0	0	0.72778	0	-0.2482	0	0	0
0.07	-36.1135	354.253	-2.49045	0.117128	0.006	-0.151785	0	0.62364	0	0	0	0	0.72778	0	-0.2482	0	0	0
0.08	-44.2385	407.392	-5.84287	0.120134	0.006	-0.151262	0	0.677878	0	0	0	0	0.72778	0	-0.2482	0	0	0
0.09	-52.0891	460.516	-9.80557	0.12296	0.006	-0.150733	0	0.73468	0	0	0	0	0.72778	0	-0.2482	0	0	0
0.1	-59.3026	512.41	-14.1934	0.125611	0.006	-0.150218	0	0.79517	0	0	0	0	0.72778	0	-0.2482	0	0	0
0.11	-65.5474	561.907	-18.7574	0.128082	0.006	-0.149739	0	0.859717	0	0	0	0	0.72778	0	-0.2482	0	0	0
0.12	-70.5421	607.966	-23.2289	0.130369	0.006	-0.149314	0	0.926221	0	0	0	0	0.72778	0	-0.2482	0	0	0
0.13	-74.0847	649.696	-27.3648	0.132472	0.006	-0.148957	0	0.989093	0	0	0	0	0.72778	0	-0.2482	0	0	0
0.14	-76.0575	686.338	-30.9762	0.134398	0.006	-0.148675	0	1.04065	0	0	0	0	0.72778	0	-0.2482	0	0	0
0.15	-76.4197	717.248	-33.9429	0.136158	0.006	-0.14847	0	1.07347	0	0	0	0	0.72778	0	-0.2482	0	0	0
0.16	-75.2085	741.915	-36.2181	0.137769	0.006	-0.148341	0	1.08164	0	0	0	0	0.72778	0	-0.2482	0	0	0
0.17	-72.538	760.028	-37.828	0.139259	0.006	-0.148283	0	1.06083	0	0	0	0	0.72778	0	-0.2482	0	0	0
0.18	-68.5925	771.552	-38.8567	0.140659	0.006	-0.14829	0	1.0083	0	0	0	0	0.72778	0	-0.2482	0	0	0
0.19	-63.6015	776.759	-39.4102	0.142009	0.006	-0.14836	0	0.924014	0	0	0	0	0.72778	0	-0.2482	0	0	0
0.2	-57.8104	776.227	-39.5872	0.143349	0.006	-0.148491	0	0.810525	0	0	0	0	0.72778	0	-0.2482	0	0	0
0.21	-51.4618	770.795	-39.4656	0.144722	0.006	-0.148686	0	0.671785	0	0	0	0	0.72778	0	-0.2482	0	0	0
0.22	-44.7793	761.509	-39.1006	0.14617	0.006	-0.148952	0	0.511891	0	0	0	0	0.72778	0	-0.2482	0	0	0
0.23	-37.9542	749.54	-38.5275	0.147732	0.006	-0.149297	0	0.334123	0	0	0	0	0.72778	0	-0.2482	0	0	0
0.24	-31.1401	736.095	-37.7679	0.149443	0.006	-0.14973	0	0.140352	0	0	0	0	0.72778	0	-0.2482	0	0	0
0.25	-24.4526	722.331	-36.8379	0.151335	0.006	-0.150256	0	-0.068931	0	0	0	0	0.72778	0	-0.2482	0	0	0
0.26	-17.9739	709.268	-35.7572	0.153437	0.006	-0.150874	0	-0.294057	0	0	0	0	0.72778	0	-0.2482	0	0	0
0.27	-11.7617	697.729	-34.5578	0.155778	0.006	-0.151574	0	-0.535566	0	0	0	0	0.72778	0	-0.2482	0	0	0
0.28	-5.8593	688.304	-33.29	0.158382	0.006	-0.152337	0	-0.793836	0	0	0	0	0.72778	0	-0.2482	0	0	0
0.29	-0.302247	681.342	-32.0226	0.161275	0.006	-0.153133	0	-1.06861	0	0	0	0	0.72778	0	-0.2482	0	0	0
0.3	4.87873	676.983	-30.8331	0.16448	0.006	-0.15393	0	-1.35834	0	0	0	0	0.72778	0	-0.2482	0	0	0
0.31	9.65889	675.191	-29.7932	0.16802	0.006	-0.15469	0	-1.65957	0	0	0	0	0.72778	0	-0.2482	0	0	0
0.32	14.0201	675.806	-28.9568	0.171913	0.006	-0.155379	0	-1.96673	0	0	0	0	0.72778	0	-0.2482	0	0	0
0.33	17.9488	678.588	-28.3546	0.176178	0.006	-0.155967	0	-2.27249	0	0	0	0	0.72778	0	-0.2482	0	0	0
0.34	21.4355	683.256	-27.9954	0.180825	0.006	-0.156427	0	-2.56858	0	0	0	0	0.72778	0	-0.2482	0	0	0
0.35	24.4792	689.517	-27.8718	0.185858	0.006	-0.15674	0	-2.84672	0	0	0	0	0.72778	0	-0.2482	0	0	0
0.36	27.096	697.1	-27.9635	0.191265	0.006	-0.156894	0	-3.09937	0	0	0	0	0.72778	0	-0.2482	0	0	0
0.37	29.3281	705.776	-28.2432	0.197021	0.006	-0.156882	0	-3.32059	0	0	0	0	0.72778	0	-0.2482	0	0	0
0.38	31.2476	715.366	-28.682	0.203079	0.006	-0.156703	0	-3.5063	0	0	0	0	0.72778	0	-0.2482	0	0	0
0.39	32.95	725.744	-29.254	0.209382	0.006	-0.156363	0	-3.65431	0	0	0	0	0.72778	0	-0.2482	0	0	0
0.4	34.5391	736.82	-29.9382	0.215861	0.006	-0.155873	0	-3.76414	0	0	0	0	0.72778	0	-0.2482	0	0	0
0.41	36.1148	748.515	-30.7203	0.222447	0.006	-0.15525	0	-3.83662	0	0	0	0	0.72778	0	-0.2482	0	0	0
0.42	37.7674	760.737	-31.5946	0.229067	0.006	-0.154515	0	-3.87359	0	0	0	0	0.72778	0	-0.2482	0	0	0
0.43	39.5774	773.355	-32.5623	0.235648	0.006	-0.153695	0	-3.87746	0	0	0	0	0.72778	0	-0.2482	0	0	0
0.44	41.6159	786.204	-33.6241	0.242124	0.006	-0.152822	0	-3.85086	0	0	0	0	0.72778	0	-0.2482	0	0	0
0.45	43.9422	799.065	-34.7702	0.248434	0.006	-0.151932	0	-3.79658	0	0	0	0	0.72778	0	-0.2482	0	0	0
0.46	46.5992	811.652	-35.9689	0.254526	0.006	-0.151065	0	-3.7182	0	0	0	0	0.72778	0	-0.2482	0	0	0
0.47	49.6109	823.586	-37.1611	0.260357	0.006	-0.150259	0	-3.62062	0	0	0	0	0.72778	0	-0.2482	0	0	0
0.48	52.9815	834.377	-38.2641	0.265898	0.006	-0.14955	0	-3.51017	0	0	0	0	0.72778	0	-0.2482	0	0	0
0.49	56.6906	843.415	-39.1793	0.27113	0.006	-0.148966	0	-3.39449	0	0	0	0	0.72778	0	-0.2482	0	0	0
0.5	60.6903	849.99	-39.7981	0.276051	0.006	-0.148527	0	-3.28226	0	0	0	0	0.72778	0	-0.2482	0	0	0
0.51	64.9036	853.334	-40.0133	0.280669	0.006	-0.148243	0	-3.18235	0	0	0	0	0.72778	0	-0.2482	0	0	0
0.52	69.2223	852.669	-39.7304	0.285001	0.006	-0.148115	0	-3.10263	0	1.92188	25.5124	-6.34267	0.7353	0.006	-0.251145	0	0.272486	0
0.53	73.51	847.266	-38.8776	0.289069	0.006	-0.148135	0	-3.04928	0	0.121181	48.3007	-7.42823	0.77905	0.006	-0.267771	0	0.395183	0
0.54	77.6046	836.489	-37.413	0.292899	0.006	-0.148288	0	-3.02595	0	-2.59967	77.0155	-8.55478	0.799119	0.006	-0.274777	0	0.437377	0
0.55	81.3177	819.823	-35.3288	0.296519	0.006	-0.148555	0	-3.03315	0	-6.42824	112.021	-9.65501	0.811076	0.006	-0.278515	0	0.453619	0
0.56	84.4364	796.904	-32.6552	0.299959	0.006	-0.148917	0	-3.06758	0	-11.5505	153.363	-10.6355	0.819371	0.006	-0.28078	0	0.460142	0
0.57	86.7288	767.552	-29.4624	0.303253	0.006	-0.149352	0	-3.12169	0	-18.1621	200.664	-11.3788	0.825772	0.006	-0.282273	0	0.463558	0
0.58	87.9577	731.8	-25.8594	0.306434	0.006	-0.149838	0	-3.18419	0	-26.4442	253.071	-11.7492	0.831131	0.006	-0.283326	0	0.467555	0
0.59	87.9065	689.929	-21.9906	0.309543	0.006	-0.150355	0	-3.2411	0	-36.372	309.354	-11.5965	0.835902	0.006	-0.284118	0	0.475656	0
0.6	86.4091	642.498	-18.0318	0.31262	0.006	-0.150884	0	-3.27724	0	-47.6011	368.122	-10.7811	0.84033	0.006	-0.284759	0	0.491061	0
0.61	83.3753	590.344	-14.1791	0.315707	0.006	-0.151407	0	-3.27806	0	-59.6126	427.931	-9.22191	0.844547	0.006	-0.285306	0	0.515474	0
0.62	78.8088	534.572	-10.6295	0.31885	0.006	-0.151908	0	-3.23159	0	-71.8799	487.294	-6.92183	0.848623	0.006	-0.28579	0	0.54896	0
0.63	72.8213	476.489	-7.55429	0.322094	0.006	-0.152371	0	-3.13021	0	-83.8921	544.764	-3.97076	0.852594	0.006	-0.286225	0	0.590245	0
0.64	65.6327	417.53	-5.07659	0.325492	0.006	-0.152779	0	-2.97158	0	-95.1645	599.044	-0.539589	0.856468	0.006	-0.286612	0	0.63701	0
0.65	57.5496	359.161	-3.25149	0.32911	0.006	-0.153116	0	-2.75864	0	-105.277	649.066	3.15542	0.860241	0.006	-0.286954	0	0.686491	0
0.66	48.935	302.785	-2.05734	0.333032	0.006	-0.153369	0	-2.49905	0	-113.887	694.026	6.89756	0.863901	0.006	-0.287252	0	0.736568	0
0.67	40.1736	249.66	-1.40098	0.337383	0.006	-0.153527	0	-2.20432	0	-120.748	733.385	10.4944	0.867437	0.006	-0.28751	0	0.785621	0
0.68	31.6408	200.82	-1.1408	0.342351	0.006	-0.153583	0	-1.88835	0	-125.714	766.807	13.7885	0.870842	0.006	-0.287736	0	0.831788	0
0.69	23.6787	157	-1.1208	0.348237	0.006	-0.15353	0	-1.5656	0	-128.724	794.055	16.6687	0.874116	0.006	-0.287936	0	0.873134	0
0.7	16.5693	118.614	-1.20353	0.35555	0.006	-0.153351	0	-1.24918	0	-129.802	814.969	19.0873	0.877266	0.006	-0.288123	0	0.909042	0
0.71	10.5073	85.7744	-1.28923	0.365256	0.006	-0.152998	0	-0.949308	0	-129.062	829.539	21.0628	0.880312	0.006	-0.28831	0	0.940643	0
0.72	5.58895	58.3573	-1.31921	0.379438	0.006	-0.152352	0	-0.672617	0	-126.701	837.969	22.6538	0.883279	0.006	-0.288512	0	0.969949	0
0.73	1.80544	36.0669	-1.27437	0.403566	0.006	-0.151065	0	-0.420696	0	-122.962	840.694	23.9271	0.886195	0.006	-0.288742	0	0.999516	0
0.74	0	0	0	0.449249	0	-0.148531	0	0	0	-118.107	838.34	24.9393	0.889086	0.006	-0.28901	0	1.03258	0
0.75	0	0	0	0.473376	0	-0.148238	0	0	0	-112.398	831.663	25.7282	0.89197	0.006	-0.28932	0	1.07323	0
0.76	0	0	0	0.497502	0	-0.147945	0	0	0	-106.081	821.499	26.3125	0.894858	0.006	-0.289675	0	1.12622	0
0.77	0	0	0	0.521628	0	-0.147652	0	0	0	-99.3742	808.715	26.7004	0.897755	0.006	-0.290073	0	1.19618	0
0.78	0	0	0	0.545754	0	-0.147359	0	0	0	-92.4677	794.174	26.9004	0.900655	0.006	-0.290509	0	1.28687	0
0.79	0	0	0	0.56988	0	-0.147066	0	0	0	-85.5229	778.689	26.9308	0.903547	0.006	-0.290976	0	1.40055	0
0.8	0	0	0	0.594006	0	-0.146773	0	0	0	-78.6771	762.988	26.8261	0.906417	0.006	-0.291466	0	1.53743	0
0.81	0	0	0	0.618132	0	-0.146479	0	0	0	-72.0431	747.687	26.6367	0.90925	0.006	-0.291971	0	1.69579	0
0.82	0	0	0	0.642259	0	-0.146186	0	0	0	-65.7094	733.283	26.4196	0.912034	0.006	-0.292483	0	1.8725	0
0.83	0	0	0	0.666385	0	-0.145893	0	0	0	-59.7388	720.158	26.2262	0.914755	0.006	-0.292992	0	2.06387	0
0.84	0	0	0	0.690511	0	-0.1456	0	0	0	-54.1668	708.59	26.0916	0.917408	0.006	-0.293487	0	2.26627	0
0.85	0	0	0	0.714637	0	-0.145307	0	0	0	-49	698.762	26.0314	0.919985	0.006	-0.293957	0	2.47675	0
0.86	0	0	0	0.738763	0	-0.145014	0	0	0	-44.2158	690.778	26.0429	0.922482	0.006	-0.294386	0	2.69319	0
0.87	0	0	0	0.762889	0	-0.144721	0	0	0	-39.7685	684.668	26.112	0.9249	0.006	-0.294762	0	2.91447	0
0.88	0	0	0	0.787016	0	-0.144428	0	0	0	-35.5996	680.4	26.2186	0.927241	0.006	-0.295073	0	3.14038	0
0.89	0	0	0	0.811142	0	-0.144134	0	0	0	-31.6481	677.89	26.3438	0.929516	0.006	-0.295311	0	3.37142	0
0.9	0	0	0	0.835268	0	-0.143841	0	0	0	-27.8576	677.013	26.4761	0.931742	0.006	-0.295471	0	3.60831	0
0.91	0	0	0	0.859394	0	-0.143548	0	0	0	-24.1793	677.619	26.6177	0.933941	0.006	-0.295555	0	3.85159	0
0.92	0	0	0	0.88352	0	-0.143255	0	0	0	-20.5744	679.558	26.7859	0.93614	0.006	-0.295568	0	4.10119	0
0.93	0	0	0	0.907646	0	-0.142962	0	0	0	-17.0153	682.681	27.0094	0.938374	0.006	-0.29552	0	4.35616	0
0.94	0	0	0	0.931773	0	-0.142669	0	0	0	-13.4821	686.851	27.3214	0.940674	0.006	-0.295425	0	4.61475	0
0.95	0	0	0	0.955899	0	-0.142376	0	0	0	-9.96107	691.955	27.752	0.943074	0.006	-0.295296	0	4.87469	0
0.96	0	0	0	0.980025	0	-0.142083	0	0	0	-6.44174	697.908	28.3211	0.945604	0.006	-0.295143	0	5.13345	0
0.97	0	0	0	1.00415	0	-0.141789	0	0	0	-2.91485	704.661	29.0364	0.948291	0.006	-0.294973	0	5.38853	0
0.98	0	0	0	1.02828	0	-0.141496	0	0	0	0.628831	712.202	29.8947	0.951155	0.006	-0.294789	0	5.63742	0
0.99	0	0	0	1.0524	0	-0.141203	0	0	0	4.19878	720.543	30.8856	0.954208	0.006	-0.294592	0	5.87737	0
1	0	0	0	1.07653	0	-0.14091	0	0	0	7.80454	729.715	31.9932	0.957455	0.006	-0.294379	0	6.10509	0
1.01	0	0	0	1.10066	0	-0.140617	0	0	0	11.4555	739.759	33.1993	0.960895	0.006	-0.294145	0	6.3165	0
1.02	0	0	0	1.12478	0	-0.140324	0	0	0	15.1615	750.707	34.4849	0.964517	0.006	-0.293885	0	6.50664	0
1.03	0	0	0	1.14891	0	-0.140031	0	0	0	18.9339	762.57	35.831	0.9683	0.006	-0.293596	0	6.6697	0
1.04	0	0	0	1.17303	0	-0.139737	0	0	0	22.7874	775.313	37.2192	0.97222	0.006	-0.293275	0	6.79929	0
